<?xml version="1.0" standalone="no"?><!DOCTYPE svg PUBLIC "-//W3C//DTD SVG 1.1//EN" "http://www.w3.org/Graphics/SVG/1.1/DTD/svg11.dtd"><svg t="1627286478581" class="icon" viewBox="0 0 1024 1024" version="1.1" xmlns="http://www.w3.org/2000/svg" p-id="3023" xmlns:xlink="http://www.w3.org/1999/xlink" width="200" height="200"><defs><style type="text/css">@font-face { font-family: feedback-iconfont; src: url("//at.alicdn.com/t/font_1031158_1uhr8ri0pk5.eot?#iefix") format("embedded-opentype"), url("//at.alicdn.com/t/font_1031158_1uhr8ri0pk5.woff2") format("woff2"), url("//at.alicdn.com/t/font_1031158_1uhr8ri0pk5.woff") format("woff"), url("//at.alicdn.com/t/font_1031158_1uhr8ri0pk5.ttf") format("truetype"), url("//at.alicdn.com/t/font_1031158_1uhr8ri0pk5.svg#iconfont") format("svg"); }
</style></defs><path d="M896 128 128 128c-35.346 0-64 28.654-64 64l0 512c0 35.347 28.654 64 64 64l320 0 0 64L288 832c-17.673 0-32 14.327-32 32s14.327 32 32 32l448 0c17.673 0 32-14.327 32-32s-14.327-32-32-32L576 832l0-64 320 0c35.346 0 64-28.653 64-64L960 192C960 156.654 931.346 128 896 128zM896 672c0 17.673-14.327 32-32 32L160 704c-17.673 0-32-14.327-32-32L128 224c0-17.673 14.327-32 32-32l704 0c17.673 0 32 14.327 32 32L896 672z" p-id="3024" fill="#bfbfbf"></path></svg>