<?xml version="1.0" standalone="no"?><!DOCTYPE svg PUBLIC "-//W3C//DTD SVG 1.1//EN" "http://www.w3.org/Graphics/SVG/1.1/DTD/svg11.dtd"><svg t="1626440280945" class="icon" viewBox="0 0 1035 1024" version="1.1" xmlns="http://www.w3.org/2000/svg" p-id="2314" xmlns:xlink="http://www.w3.org/1999/xlink" width="202.1484375" height="200"><defs><style type="text/css"></style></defs><path d="M392.261332 107.729733a283.236559 283.236559 0 0 0-244.999623 141.618279 16.286102 16.286102 0 0 0 5.664731 21.950834 15.578011 15.578011 0 0 0 8.497096 0 16.286102 16.286102 0 0 0 13.453737-7.789006A254.204811 254.204811 0 0 1 392.261332 143.134303a16.286102 16.286102 0 0 0 0-31.864113zM134.516063 315.908604a16.286102 16.286102 0 0 0-19.118467 12.037553 212.427419 212.427419 0 0 0-7.789006 55.939221 16.286102 16.286102 0 1 0 31.864113 0A178.439032 178.439032 0 0 1 143.01316 335.027071a16.286102 16.286102 0 0 0-8.497097-19.118467z m872.368601 545.230375l-257.745269-258.45336a75.765779 75.765779 0 0 0-19.118467-14.161828 391.574542 391.574542 0 1 0-128.872634 133.829274 84.970968 84.970968 0 0 0 12.745645 15.578011l257.037177 254.912903a95.592339 95.592339 0 0 0 135.245456-135.245457z m-613.915241-141.618279a327.138225 327.138225 0 1 1 327.138225-327.138226 327.846317 327.846317 0 0 1-327.846316 327.138226z m566.473117 231.545886a32.572204 32.572204 0 0 1-45.317849 0L658.503697 693.321318v-3.540457s0-7.080914 19.118467-25.49129 24.783199-19.118468 24.783199-19.118468h4.248549l257.745268 257.745268a31.864113 31.864113 0 0 1 9.205188 22.658925 31.864113 31.864113 0 0 1-12.037554 25.49129z" p-id="2315" fill="#cdcdcd"></path></svg>