<?xml version="1.0" standalone="no"?><!DOCTYPE svg PUBLIC "-//W3C//DTD SVG 1.1//EN" "http://www.w3.org/Graphics/SVG/1.1/DTD/svg11.dtd"><svg t="1626440210298" class="icon" viewBox="0 0 1024 1024" version="1.1" xmlns="http://www.w3.org/2000/svg" p-id="2022" xmlns:xlink="http://www.w3.org/1999/xlink" width="200" height="200"><defs><style type="text/css"></style></defs><path d="M512.125355 44.535309c-245.526973 0-445.309088 180.775226-445.309088 402.885883 0 119.788224 58.021461 231.807507 159.454641 308.668036v219.609696l210.654744-131.36284c25.561166 3.992941 50.924833 5.969968 75.31943 5.969968 245.526973 0 445.309088-180.76397 445.309088-402.88486-0.119727-222.110657-199.8824-402.885883-445.428815-402.885883z m0 764.257258c-24.473391 0-50.132794-2.194992-76.168774-6.68219l-7.373944-1.303692-161.884994 101.016695V734.620263l-8.638751-6.187932c-95.798856-69.170382-150.795425-171.503049-150.795425-281.011139 0-199.23874 181.673689-361.262904 404.861888-361.262903 223.307925 0 404.90282 162.122401 404.90282 361.262903 0 199.149712-181.594895 361.371374-404.90282 361.371375z" p-id="2023" fill="#cdcdcd"></path><path d="M303.723931 382.738008c-33.527604 0-60.72913 27.952632-60.729129 62.389955s27.201525 62.389956 60.729129 62.389956 60.72913-27.952632 60.72913-62.389956-27.201525-62.389956-60.72913-62.389955zM512.125355 382.738008c-33.507138 0-60.72913 27.952632-60.72913 62.389955s27.221991 62.389956 60.72913 62.389956c33.528628 0 60.730153-27.952632 60.730153-62.389956s-27.201525-62.389956-60.730153-62.389955zM720.565664 382.738008c-33.527604 0-60.72913 27.952632-60.729129 62.389955s27.201525 62.389956 60.729129 62.389956c33.508161 0 60.730153-27.952632 60.730153-62.389956s-27.122731-62.389956-60.730153-62.389955z" p-id="2024" fill="#cdcdcd"></path></svg>