<?xml version="1.0" standalone="no"?><!DOCTYPE svg PUBLIC "-//W3C//DTD SVG 1.1//EN" "http://www.w3.org/Graphics/SVG/1.1/DTD/svg11.dtd"><svg t="1626147949123" class="icon" viewBox="0 0 1024 1024" version="1.1" xmlns="http://www.w3.org/2000/svg" p-id="1830" xmlns:xlink="http://www.w3.org/1999/xlink" width="200" height="200"><defs><style type="text/css"></style></defs><path d="M67.8 692l40-249.1c2.3-14.3 9.6-27.2 20.7-36.5L504.9 90.1c50.7-42.6 126.4-36 168.9 14.8L809 266.1c42.6 50.8 36 126.5-14.8 169.1L417.7 751.6c-11.1 9.3-25.1 14.3-39.5 14.1l-251.9-3.9c-36.7-0.6-64.3-33.6-58.5-69.8z m125.3-212.7L167.6 638c-2.9 18 10.9 34.5 29.1 34.7l160.5 2.4c7.2 0.1 14.2-2.4 19.7-7l336.4-282.6c25.4-21.3 28.7-59.2 7.4-84.6l-96.4-115.1c-21.3-25.4-59.1-28.7-84.5-7.4L203.4 461.1c-5.5 4.6-9.2 11.1-10.3 18.2zM916.9 962H107.1C82.3 962 62 941.7 62 916.9s20.3-45.1 45.1-45.1H917c24.8 0 45.1 20.3 45.1 45.1-0.1 24.8-20.4 45.1-45.2 45.1zM916.9 781.8H647.1c-24.8 0-45.1-20.3-45.1-45.1s20.3-45.1 45.1-45.1H917c24.8 0 45.1 20.3 45.1 45.1-0.1 24.8-20.4 45.1-45.2 45.1z" fill="#bfbfbf" p-id="1831"></path></svg>