<?xml version="1.0" standalone="no"?><!DOCTYPE svg PUBLIC "-//W3C//DTD SVG 1.1//EN" "http://www.w3.org/Graphics/SVG/1.1/DTD/svg11.dtd"><svg t="1626154449241" class="icon" viewBox="0 0 1024 1024" version="1.1" xmlns="http://www.w3.org/2000/svg" p-id="2900" xmlns:xlink="http://www.w3.org/1999/xlink" width="200" height="200"><defs><style type="text/css"></style></defs><path d="M911.969 226.237l-0.036 0.646-38.276 581.744c-1.335 20.29-22.077 33.29-40.865 25.827l-0.612-0.251-317.089-133.827-104.717 163.775c-15.935 24.922-54.329 14.003-55.095-15.206l-0.012-0.89V635.433L88.654 527.213c-25.266-10.256-24.662-46.049 0.57-55.616l0.772-0.282L872.18 196.719c20.036-7.034 40.739 8.45 39.79 29.518z m-64.635 71.396L415.08 638.345l-0.001 107.426 58.26-91.114a29.817 29.817 0 0 1 7.785-8.213c7.82-10.93 22.309-15.508 35.269-10.404l0.682 0.278L816.73 762.784l30.604-465.151z m-108.215 9.163L184.383 501.542l203.08 82.433 351.656-277.18z" fill="#bfbfbf" p-id="2901"></path></svg>